<?xml version="1.0" encoding="UTF-8" standalone="no"?>
<!-- Created with Inkscape (http://www.inkscape.org/) -->

<svg
   width="210mm"
   height="297mm"
   viewBox="0 0 210 297"
   version="1.1"
   id="svg1"
   xml:space="preserve"
   inkscape:version="1.3.2 (091e20e, 2023-11-25, custom)"
   sodipodi:docname="logo.svg"
   inkscape:export-filename="faviconWoB.png"
   inkscape:export-xdpi="96"
   inkscape:export-ydpi="96"
   xmlns:inkscape="http://www.inkscape.org/namespaces/inkscape"
   xmlns:sodipodi="http://sodipodi.sourceforge.net/DTD/sodipodi-0.dtd"
   xmlns:xlink="http://www.w3.org/1999/xlink"
   xmlns="http://www.w3.org/2000/svg"
   xmlns:svg="http://www.w3.org/2000/svg"><sodipodi:namedview
     id="namedview1"
     pagecolor="#ffffff"
     bordercolor="#000000"
     borderopacity="0.25"
     inkscape:showpageshadow="2"
     inkscape:pageopacity="0.0"
     inkscape:pagecheckerboard="0"
     inkscape:deskcolor="#d1d1d1"
     inkscape:document-units="mm"
     inkscape:zoom="1.4627806"
     inkscape:cx="18.116182"
     inkscape:cy="453.58819"
     inkscape:window-width="2560"
     inkscape:window-height="1017"
     inkscape:window-x="-8"
     inkscape:window-y="32"
     inkscape:window-maximized="1"
     inkscape:current-layer="layer1" /><defs
     id="defs1"><linearGradient
       id="linearGradient7"
       inkscape:collect="always"><stop
         style="stop-color:#ff0000;stop-opacity:1;"
         offset="0"
         id="stop7" /><stop
         style="stop-color:#ff5500;stop-opacity:1;"
         offset="0.0625"
         id="stop16" /><stop
         style="stop-color:#ffaa00;stop-opacity:1;"
         offset="0.125"
         id="stop12" /><stop
         style="stop-color:#e6ff00;stop-opacity:1;"
         offset="0.1875"
         id="stop17" /><stop
         style="stop-color:#80ff00;stop-opacity:1;"
         offset="0.25"
         id="stop11" /><stop
         style="stop-color:#00ff54;stop-opacity:1;"
         offset="0.375"
         id="stop13" /><stop
         style="stop-color:#00ffff;stop-opacity:1;"
         offset="0.5023753"
         id="stop9" /><stop
         style="stop-color:#0057ff;stop-opacity:1;"
         offset="0.64162707"
         id="stop15" /><stop
         style="stop-color:#7f00fe;stop-opacity:1;"
         offset="0.78325415"
         id="stop10" /><stop
         style="stop-color:#ff00aa;stop-opacity:1;"
         offset="0.89162707"
         id="stop14" /><stop
         style="stop-color:#ff0000;stop-opacity:1;"
         offset="1"
         id="stop8" /></linearGradient><linearGradient
       inkscape:collect="always"
       xlink:href="#linearGradient7"
       id="linearGradient8"
       x1="61.391682"
       y1="29.736593"
       x2="78.785988"
       y2="76.228004"
       gradientUnits="userSpaceOnUse"
       gradientTransform="translate(-16.278928,-18.992083)" /><linearGradient
       inkscape:collect="always"
       xlink:href="#linearGradient7"
       id="linearGradient1"
       gradientUnits="userSpaceOnUse"
       gradientTransform="matrix(1.1319958,0,0,1.1319958,-23.773519,40.333266)"
       x1="61.391682"
       y1="29.736593"
       x2="79.350914"
       y2="84.137001" /></defs><g
     inkscape:label="Layer 1"
     inkscape:groupmode="layer"
     id="layer1"><path
       id="path1-4"
       style="fill:#ffffff;fill-opacity:1;stroke:#ffffff;stroke-width:0.315663;stroke-linecap:square;stroke-linejoin:round;stroke-dasharray:none;stroke-opacity:1"
       d="M 63.566146 97.780595 L 63.566146 109.58711 C 67.845872 108.2032 73.783623 104.1092 73.794979 96.510388 C 73.806569 88.75775 68.175535 84.522484 63.566146 83.223344 L 63.566146 95.357487 C 63.658861 95.721751 63.717026 96.113125 63.72686 96.53571 C 63.737468 96.991589 63.674283 97.402963 63.566146 97.780595 z " /><path
       id="path10"
       style="fill:#ffffff;fill-opacity:1;stroke:#ffffff;stroke-width:0.315663;stroke-linecap:square;stroke-linejoin:round;stroke-dasharray:none;stroke-opacity:1"
       d="M 51.032027 82.783577 L 39.275122 82.783577 L 39.275122 124.67043 L 49.671387 124.56914 L 49.671387 110.13591 L 51.032027 110.13591 L 51.032027 100.95146 L 49.620744 100.95146 L 49.620744 91.917904 L 51.032027 91.903434 L 51.032027 82.783577 z " /><path
       style="fill:#000000;fill-opacity:1;stroke:none;stroke-width:0.2;stroke-linecap:square;stroke-linejoin:round;stroke-dasharray:none"
       d="M 30.436304,20.209065 V 32.67925 c 0,3.147169 3.068843,9.432576 11.095268,9.432576 8.026425,0 11.255142,-6.508824 11.255142,-9.304676 V 20.081165 h -6.61879 l 0.09592,12.246361 c -0.03198,2.344179 -2.431342,3.93718 -4.668326,3.964879 -2.236984,0.0277 -4.468702,-1.546824 -4.604375,-3.964879 V 20.24104 Z"
       id="path2"
       sodipodi:nodetypes="cczcccczccc"
       inkscape:export-filename="PulseWoB.png"
       inkscape:export-xdpi="150"
       inkscape:export-ydpi="150" /><path
       style="fill:#000000;fill-opacity:1;stroke:none;stroke-width:0.2;stroke-linecap:square;stroke-linejoin:round;stroke-dasharray:none"
       d="M 56.751593,42.111826 V 11.575859 h 6.778665 l 0.06395,30.535967 z"
       id="path3" /><path
       style="fill:#000000;fill-opacity:1;stroke:none;stroke-width:0.2;stroke-linecap:square;stroke-linejoin:round;stroke-dasharray:none"
       d="m 67.241018,35.180571 0.04522,6.104599 c 0,0 5.196522,0.880526 8.455998,0.826656 8.455736,-0.13975 10.717966,-2.631689 10.716956,-7.066913 -8.5e-4,-3.756221 -2.15231,-6.127948 -8.998624,-6.782887 -5.065656,-0.484596 -5.176532,-2.488415 -0.135658,-2.487057 2.706561,7.29e-4 8.049022,1.068872 8.049022,1.068872 V 20.89129 c 0,0 -3.814802,-0.810125 -8.049022,-0.810125 -4.961041,0 -10.366261,1.669579 -10.264767,6.281653 0.143263,6.510118 5.980748,6.826871 8.95341,7.370738 5.95264,1.089073 5.583949,2.586472 0,2.44184 -6.354552,-0.164592 -8.772535,-0.994825 -8.772535,-0.994825 z"
       id="path4"
       sodipodi:nodetypes="ccssssccssssc" /><path
       style="fill:none;fill-opacity:1;stroke:url(#linearGradient8);stroke-width:3.9;stroke-linecap:square;stroke-linejoin:round;stroke-dasharray:none"
       d="m 20.62003,30.56891 h 9.080854 l 4.604375,-3.581181 4.412527,3.581181 4.668326,-0.1279 7.546063,-25.7717158 7.226312,48.4098978 12.086485,-29.480797 3.517234,6.778665 h 30.312144"
       id="path6"
       sodipodi:nodetypes="cccccccccc" /><path
       style="fill:none;fill-opacity:1;stroke:url(#linearGradient1);stroke-width:4.715;stroke-linecap:round;stroke-linejoin:round;stroke-dasharray:none"
       d="m 28.275436,96.436105 5.212133,-4.053882 4.994962,4.053882 5.284526,-0.144783 8.542111,-29.173474 9.20335,65.159652 12.658656,-43.731989 3.981494,7.67342"
       id="path6-9"
       sodipodi:nodetypes="cccccccc" /><path
       id="path5"
       style="fill:#000000;fill-opacity:1;stroke:none;stroke-width:0.2;stroke-linecap:square;stroke-linejoin:round;stroke-dasharray:none"
       d="m 100.43901,20.070649 c -0.15228,2.52e-4 -0.30461,0.0036 -0.457338,0.01034 -6.14468,0.271842 -11.42654,2.568487 -11.44684,11.016899 -0.01819,7.55747 5.57465,13.509134 19.440668,10.214363 l -0.0641,-6.043042 c -9.877598,1.763845 -11.840008,0.128034 -12.629718,-2.093412 1.1825,0.914234 14.628968,2.345821 14.420308,-6.092134 -0.0974,-3.93916 -4.54217,-7.02082 -9.263,-7.013009 z m -0.615978,6.013586 c 0.334128,-0.0075 0.676048,0.01482 1.021638,0.07235 3.3829,0.56317 2.39873,2.376431 0.86351,2.845305 -1.970578,0.601841 -5.083368,-0.01935 -6.171198,-0.54312 0,-0.826648 1.94715,-2.32203 4.28605,-2.374532 z" /><path
       id="path1"
       style="fill:#000000;fill-opacity:1;stroke:none;stroke-width:0.2;stroke-linecap:square;stroke-linejoin:round;stroke-dasharray:none"
       d="m 5.9755279,15.348973 v 26.538949 l 6.5866781,-0.06408 v -9.144661 h 7.034712 c 2.351979,-0.05462 8.240626,-2.610766 8.249626,-8.633065 0.009,-6.022299 -5.356723,-8.697144 -8.313704,-8.697144 z m 12.8860351,5.723165 c 0.824673,-0.0051 2.558702,0.955616 2.606042,2.989999 0.04734,2.034384 -2.045869,2.804462 -2.414323,2.797762 h -6.523116 v -5.723682 z"
       inkscape:export-filename="PulseBoW.png"
       inkscape:export-xdpi="150"
       inkscape:export-ydpi="150" /><path
       id="path11"
       style="fill:#ffffff;fill-opacity:1;stroke:#ffffff;stroke-width:0.315663;stroke-linecap:square;stroke-linejoin:round;stroke-dasharray:none;stroke-opacity:1"
       d="M 51.032027 100.95146 L 51.032027 110.13591 L 60.774068 110.13591 C 61.518553 110.11863 62.492515 109.93428 63.566146 109.58711 L 63.566146 97.780595 C 62.91264 100.06274 60.41521 100.96054 59.916239 100.95146 L 51.032027 100.95146 z " /><path
       id="path9"
       style="fill:#ffffff;fill-opacity:1;stroke:#ffffff;stroke-width:0.315663;stroke-linecap:square;stroke-linejoin:round;stroke-dasharray:none;stroke-opacity:1"
       d="M 51.032027 82.783577 L 51.032027 91.903434 L 59.613416 91.816618 C 60.743707 91.809758 62.954391 92.953987 63.566146 95.357487 L 63.566146 83.223344 C 62.524218 82.92968 61.533758 82.783577 60.673299 82.783577 L 51.032027 82.783577 z " /></g></svg>
